No personal conf_private.py found.
doodad not detected
2022-04-17 13:18:59.629549 EDT | Variant:
2022-04-17 13:18:59.629903 EDT | {
  "seed": 1,
  "algorithm": "DIAYN",
  "env_name": "AntEnv",
  "algo_kwargs": {
    "batch_size": 256,
    "num_epochs": 100,
    "num_eval_steps_per_epoch": 25000,
    "num_expl_steps_per_train_loop": "None",
    "num_trains_per_train_loop": 100,
    "min_num_steps_before_training": 1000,
    "max_path_length": 1000,
    "num_train_loops_per_epoch": 1
  },
  "trainer_kwargs": {
    "discount": "None",
    "soft_target_tau": 0.005,
    "target_update_period": 1,
    "policy_lr": "None",
    "qf_lr": "None",
    "reward_scale": 1,
    "use_automatic_entropy_tuning": true
  },
  "replay_buffer_kwargs": {
    "max_replay_buffer_size": "None",
    "latent_dim": 1,
    "approx_irl": true,
    "plot": true
  },
  "relabeler_kwargs": {
    "relabel": true,
    "use_adv": true,
    "n_sampled_latents": 5,
    "n_to_take": 1,
    "cache": true
  },
  "qf_kwargs": {
    "hidden_sizes": [
      256,
      256
    ],
    "latent_shape_multiplier": 1,
    "latent_to_all_layers": true
  },
  "policy_kwargs": {
    "hidden_sizes": [
      256,
      256
    ],
    "latent_shape_multiplier": 1,
    "latent_to_all_layers": true
  },
  "path_collector_kwargs": {
    "save_videos": true
  },
  "use_advantages": true,
  "proper_advantages": true,
  "plot": true,
  "test": true,
  "gpu": 0,
  "mode": "here_no_doodad",
  "local_docker": false,
  "insert_time": true,
  "latent_shape_multiplier": 1,
  "env_kwargs": {
    "use_xy": true,
    "contact_forces": true
  },
  "gpu_id": 0
}
OpenCV: FFMPEG: tag 0x44495658/'XVID' is not supported with codec id 12 and format 'mp4 / MP4 (MPEG-4 Part 14)'
OpenCV: FFMPEG: fallback to use tag 0x7634706d/'mp4v'
ffmpeg version 4.2.4-1ubuntu0.1 Copyright (c) 2000-2020 the FFmpeg developers
  built with gcc 9 (Ubuntu 9.3.0-10ubuntu2)
  configuration: --prefix=/usr --extra-version=1ubuntu0.1 --toolchain=hardened --libdir=/usr/lib/x86_64-linux-gnu --incdir=/usr/include/x86_64-linux-gnu --arch=amd64 --enable-gpl --disable-stripping --enable-avresample --disable-filter=resample --enable-avisynth --enable-gnutls --enable-ladspa --enable-libaom --enable-libass --enable-libbluray --enable-libbs2b --enable-libcaca --enable-libcdio --enable-libcodec2 --enable-libflite --enable-libfontconfig --enable-libfreetype --enable-libfribidi --enable-libgme --enable-libgsm --enable-libjack --enable-libmp3lame --enable-libmysofa --enable-libopenjpeg --enable-libopenmpt --enable-libopus --enable-libpulse --enable-librsvg --enable-librubberband --enable-libshine --enable-libsnappy --enable-libsoxr --enable-libspeex --enable-libssh --enable-libtheora --enable-libtwolame --enable-libvidstab --enable-libvorbis --enable-libvpx --enable-libwavpack --enable-libwebp --enable-libx265 --enable-libxml2 --enable-libxvid --enable-libzmq --enable-libzvbi --enable-lv2 --enable-omx --enable-openal --enable-opencl --enable-opengl --enable-sdl2 --enable-libdc1394 --enable-libdrm --enable-libiec61883 --enable-nvenc --enable-chromaprint --enable-frei0r --enable-libx264 --enable-shared
  libavutil      56. 31.100 / 56. 31.100
  libavcodec     58. 54.100 / 58. 54.100
  libavformat    58. 29.100 / 58. 29.100
  libavdevice    58.  8.100 / 58.  8.100
  libavfilter     7. 57.100 /  7. 57.100
  libavresample   4.  0.  0 /  4.  0.  0
  libswscale      5.  5.100 /  5.  5.100
  libswresample   3.  5.100 /  3.  5.100
  libpostproc    55.  5.100 / 55.  5.100
Input #0, mov,mp4,m4a,3gp,3g2,mj2, from '/home/yb1025/Research/GRAIL/relabeler-irl/accelerate-skillDiscovery/generalized-hindsight/rlkit/../data/None-None-test/None-None-test_2022_04_17_13_18_59_0000--s-1/epoch0_0_temp.mp4':
  Metadata:
    major_brand     : isom
    minor_version   : 512
    compatible_brands: isomiso2mp41
    encoder         : Lavf58.76.100
  Duration: 00:00:13.92, start: 0.000000, bitrate: 992 kb/s
    Stream #0:0(und): Video: mpeg4 (Simple Profile) (mp4v / 0x7634706D), yuv420p, 500x500 [SAR 1:1 DAR 1:1], 991 kb/s, 24 fps, 24 tbr, 12288 tbn, 24 tbc (default)
    Metadata:
      handler_name    : VideoHandler
Stream mapping:
  Stream #0:0 -> #0:0 (mpeg4 (native) -> h264 (libx264))
Press [q] to stop, [?] for help
[libx264 @ 0x558888a3a200] using SAR=1/1
[libx264 @ 0x558888a3a200] using cpu capabilities: MMX2 SSE2Fast SSSE3 SSE4.2 AVX FMA3 BMI2 AVX2 AVX512
[libx264 @ 0x558888a3a200] profile High, level 3.0
[libx264 @ 0x558888a3a200] 264 - core 155 r2917 0a84d98 - H.264/MPEG-4 AVC codec - Copyleft 2003-2018 - http://www.videolan.org/x264.html - options: cabac=1 ref=3 deblock=1:0:0 analyse=0x3:0x113 me=hex subme=7 psy=1 psy_rd=1.00:0.00 mixed_ref=1 me_range=16 chroma_me=1 trellis=1 8x8dct=1 cqm=0 deadzone=21,11 fast_pskip=1 chroma_qp_offset=-2 threads=3 lookahead_threads=1 sliced_threads=0 nr=0 decimate=1 interlaced=0 bluray_compat=0 constrained_intra=0 bframes=3 b_pyramid=2 b_adapt=1 b_bias=0 direct=1 weightb=1 open_gop=0 weightp=2 keyint=250 keyint_min=24 scenecut=40 intra_refresh=0 rc_lookahead=40 rc=crf mbtree=1 crf=20.0 qcomp=0.60 qpmin=0 qpmax=69 qpstep=4 ip_ratio=1.40 aq=1:1.00
Output #0, mp4, to '/home/yb1025/Research/GRAIL/relabeler-irl/accelerate-skillDiscovery/generalized-hindsight/rlkit/../data/None-None-test/None-None-test_2022_04_17_13_18_59_0000--s-1/epoch0_0.mp4':
  Metadata:
    major_brand     : isom
    minor_version   : 512
    compatible_brands: isomiso2mp41
    encoder         : Lavf58.29.100
    Stream #0:0(und): Video: h264 (libx264) (avc1 / 0x31637661), yuv420p, 500x500 [SAR 1:1 DAR 1:1], q=-1--1, 24 fps, 12288 tbn, 24 tbc (default)
    Metadata:
      handler_name    : VideoHandler
      encoder         : Lavc58.54.100 libx264
    Side data:
      cpb: bitrate max/min/avg: 0/0/0 buffer size: 0 vbv_delay: -1
frame=  255 fps=0.0 q=25.0 size=       0kB time=00:00:08.54 bitrate=   0.0kbits/s speed=17.1x    frame=  334 fps=0.0 q=-1.0 Lsize=     126kB time=00:00:13.79 bitrate=  74.8kbits/s speed=19.5x    
video:121kB audio:0kB subtitle:0kB other streams:0kB global headers:0kB muxing overhead: 3.910754%
[libx264 @ 0x558888a3a200] frame I:2     Avg QP:17.56  size: 33233
[libx264 @ 0x558888a3a200] frame P:84    Avg QP:20.39  size:   474
[libx264 @ 0x558888a3a200] frame B:248   Avg QP:26.71  size:    69
[libx264 @ 0x558888a3a200] consecutive B-frames:  0.6%  0.6%  1.8% 97.0%
[libx264 @ 0x558888a3a200] mb I  I16..4: 32.8% 14.0% 53.2%
[libx264 @ 0x558888a3a200] mb P  I16..4:  0.3%  0.4%  0.1%  P16..4:  3.0%  0.1%  0.2%  0.0%  0.0%    skip:95.8%
[libx264 @ 0x558888a3a200] mb B  I16..4:  0.7%  0.0%  0.0%  B16..8:  2.8%  0.1%  0.0%  direct: 0.0%  skip:96.4%  L0:56.4% L1:43.5% BI: 0.1%
[libx264 @ 0x558888a3a200] 8x8 transform intra:15.7% inter:72.8%
[libx264 @ 0x558888a3a200] coded y,uvDC,uvAC intra: 20.6% 43.1% 25.6% inter: 0.3% 0.6% 0.2%
[libx264 @ 0x558888a3a200] i16 v,h,dc,p: 35% 62%  3%  0%
[libx264 @ 0x558888a3a200] i8 v,h,dc,ddl,ddr,vr,hd,vl,hu: 16%  9% 66%  2%  1%  1%  1%  2%  2%
[libx264 @ 0x558888a3a200] i4 v,h,dc,ddl,ddr,vr,hd,vl,hu: 29% 40% 11%  2%  3%  5%  2%  5%  2%
[libx264 @ 0x558888a3a200] i8c dc,h,v,p: 33% 50% 14%  3%
[libx264 @ 0x558888a3a200] Weighted P-Frames: Y:0.0% UV:0.0%
[libx264 @ 0x558888a3a200] ref P L0: 82.1%  2.6% 11.9%  3.4%
[libx264 @ 0x558888a3a200] ref B L0: 49.4% 49.0%  1.6%
[libx264 @ 0x558888a3a200] ref B L1: 97.5%  2.5%
[libx264 @ 0x558888a3a200] kb/s:70.90
OpenCV: FFMPEG: tag 0x44495658/'XVID' is not supported with codec id 12 and format 'mp4 / MP4 (MPEG-4 Part 14)'
OpenCV: FFMPEG: fallback to use tag 0x7634706d/'mp4v'
ffmpeg version 4.2.4-1ubuntu0.1 Copyright (c) 2000-2020 the FFmpeg developers
  built with gcc 9 (Ubuntu 9.3.0-10ubuntu2)
  configuration: --prefix=/usr --extra-version=1ubuntu0.1 --toolchain=hardened --libdir=/usr/lib/x86_64-linux-gnu --incdir=/usr/include/x86_64-linux-gnu --arch=amd64 --enable-gpl --disable-stripping --enable-avresample --disable-filter=resample --enable-avisynth --enable-gnutls --enable-ladspa --enable-libaom --enable-libass --enable-libbluray --enable-libbs2b --enable-libcaca --enable-libcdio --enable-libcodec2 --enable-libflite --enable-libfontconfig --enable-libfreetype --enable-libfribidi --enable-libgme --enable-libgsm --enable-libjack --enable-libmp3lame --enable-libmysofa --enable-libopenjpeg --enable-libopenmpt --enable-libopus --enable-libpulse --enable-librsvg --enable-librubberband --enable-libshine --enable-libsnappy --enable-libsoxr --enable-libspeex --enable-libssh --enable-libtheora --enable-libtwolame --enable-libvidstab --enable-libvorbis --enable-libvpx --enable-libwavpack --enable-libwebp --enable-libx265 --enable-libxml2 --enable-libxvid --enable-libzmq --enable-libzvbi --enable-lv2 --enable-omx --enable-openal --enable-opencl --enable-opengl --enable-sdl2 --enable-libdc1394 --enable-libdrm --enable-libiec61883 --enable-nvenc --enable-chromaprint --enable-frei0r --enable-libx264 --enable-shared
  libavutil      56. 31.100 / 56. 31.100
  libavcodec     58. 54.100 / 58. 54.100
  libavformat    58. 29.100 / 58. 29.100
  libavdevice    58.  8.100 / 58.  8.100
  libavfilter     7. 57.100 /  7. 57.100
  libavresample   4.  0.  0 /  4.  0.  0
  libswscale      5.  5.100 /  5.  5.100
  libswresample   3.  5.100 /  3.  5.100
  libpostproc    55.  5.100 / 55.  5.100
Input #0, mov,mp4,m4a,3gp,3g2,mj2, from '/home/yb1025/Research/GRAIL/relabeler-irl/accelerate-skillDiscovery/generalized-hindsight/rlkit/../data/None-None-test/None-None-test_2022_04_17_13_18_59_0000--s-1/epoch0_1_temp.mp4':
  Metadata:
    major_brand     : isom
    minor_version   : 512
    compatible_brands: isomiso2mp41
    encoder         : Lavf58.76.100
  Duration: 00:00:13.92, start: 0.000000, bitrate: 998 kb/s
    Stream #0:0(und): Video: mpeg4 (Simple Profile) (mp4v / 0x7634706D), yuv420p, 500x500 [SAR 1:1 DAR 1:1], 997 kb/s, 24 fps, 24 tbr, 12288 tbn, 24 tbc (default)
    Metadata:
      handler_name    : VideoHandler
Stream mapping:
  Stream #0:0 -> #0:0 (mpeg4 (native) -> h264 (libx264))
Press [q] to stop, [?] for help
[libx264 @ 0x55644a76c240] using SAR=1/1
[libx264 @ 0x55644a76c240] using cpu capabilities: MMX2 SSE2Fast SSSE3 SSE4.2 AVX FMA3 BMI2 AVX2 AVX512
[libx264 @ 0x55644a76c240] profile High, level 3.0
[libx264 @ 0x55644a76c240] 264 - core 155 r2917 0a84d98 - H.264/MPEG-4 AVC codec - Copyleft 2003-2018 - http://www.videolan.org/x264.html - options: cabac=1 ref=3 deblock=1:0:0 analyse=0x3:0x113 me=hex subme=7 psy=1 psy_rd=1.00:0.00 mixed_ref=1 me_range=16 chroma_me=1 trellis=1 8x8dct=1 cqm=0 deadzone=21,11 fast_pskip=1 chroma_qp_offset=-2 threads=3 lookahead_threads=1 sliced_threads=0 nr=0 decimate=1 interlaced=0 bluray_compat=0 constrained_intra=0 bframes=3 b_pyramid=2 b_adapt=1 b_bias=0 direct=1 weightb=1 open_gop=0 weightp=2 keyint=250 keyint_min=24 scenecut=40 intra_refresh=0 rc_lookahead=40 rc=crf mbtree=1 crf=20.0 qcomp=0.60 qpmin=0 qpmax=69 qpstep=4 ip_ratio=1.40 aq=1:1.00
Output #0, mp4, to '/home/yb1025/Research/GRAIL/relabeler-irl/accelerate-skillDiscovery/generalized-hindsight/rlkit/../data/None-None-test/None-None-test_2022_04_17_13_18_59_0000--s-1/epoch0_1.mp4':
  Metadata:
    major_brand     : isom
    minor_version   : 512
    compatible_brands: isomiso2mp41
    encoder         : Lavf58.29.100
    Stream #0:0(und): Video: h264 (libx264) (avc1 / 0x31637661), yuv420p, 500x500 [SAR 1:1 DAR 1:1], q=-1--1, 24 fps, 12288 tbn, 24 tbc (default)
    Metadata:
      handler_name    : VideoHandler
      encoder         : Lavc58.54.100 libx264
    Side data:
      cpb: bitrate max/min/avg: 0/0/0 buffer size: 0 vbv_delay: -1
frame=  260 fps=0.0 q=25.0 size=       0kB time=00:00:08.75 bitrate=   0.0kbits/s speed=17.4x    frame=  334 fps=0.0 q=-1.0 Lsize=     124kB time=00:00:13.79 bitrate=  73.4kbits/s speed=19.2x    
video:119kB audio:0kB subtitle:0kB other streams:0kB global headers:0kB muxing overhead: 3.985635%
[libx264 @ 0x55644a76c240] frame I:2     Avg QP:17.69  size: 33556
[libx264 @ 0x55644a76c240] frame P:84    Avg QP:20.87  size:   445
[libx264 @ 0x55644a76c240] frame B:248   Avg QP:29.14  size:    67
[libx264 @ 0x55644a76c240] consecutive B-frames:  0.9%  0.0%  0.9% 98.2%
[libx264 @ 0x55644a76c240] mb I  I16..4: 32.0% 14.9% 53.1%
[libx264 @ 0x55644a76c240] mb P  I16..4:  0.3%  0.1%  0.1%  P16..4:  2.5%  0.1%  0.2%  0.0%  0.0%    skip:96.6%
[libx264 @ 0x55644a76c240] mb B  I16..4:  0.3%  0.3%  0.0%  B16..8:  2.7%  0.1%  0.0%  direct: 0.0%  skip:96.6%  L0:63.9% L1:36.0% BI: 0.2%
[libx264 @ 0x55644a76c240] 8x8 transform intra:25.5% inter:72.7%
[libx264 @ 0x55644a76c240] coded y,uvDC,uvAC intra: 23.3% 48.0% 28.6% inter: 0.3% 0.5% 0.2%
[libx264 @ 0x55644a76c240] i16 v,h,dc,p: 40% 53%  7%  0%
[libx264 @ 0x55644a76c240] i8 v,h,dc,ddl,ddr,vr,hd,vl,hu: 11% 15% 67%  1%  1%  1%  0%  2%  1%
[libx264 @ 0x55644a76c240] i4 v,h,dc,ddl,ddr,vr,hd,vl,hu: 29% 40% 11%  3%  3%  5%  2%  5%  2%
[libx264 @ 0x55644a76c240] i8c dc,h,v,p: 36% 45% 16%  3%
[libx264 @ 0x55644a76c240] Weighted P-Frames: Y:0.0% UV:0.0%
[libx264 @ 0x55644a76c240] ref P L0: 80.4%  3.3% 12.2%  4.1%
[libx264 @ 0x55644a76c240] ref B L0: 54.9% 43.9%  1.2%
[libx264 @ 0x55644a76c240] ref B L1: 96.6%  3.4%
[libx264 @ 0x55644a76c240] kb/s:69.56
/ext3/pytorch_sac/lib/python3.6/site-packages/gym/spaces/box.py:74: UserWarning: [33mWARN: Box bound precision lowered by casting to float32[0m
  "Box bound precision lowered by casting to {}".format(self.dtype)
workspace: /home/yb1025/Research/GRAIL/relabeler-irl/accelerate-skillDiscovery/generalized-hindsight/exp/2022.04.17/1318_diayn_gher_test_exp
The agent recognised is: {'name': 'diayn_gher', 'class': 'agent.diayn_gher.DIAYNGHERAgent', 'params': {'obs_dim': '???', 'action_dim': '???', 'action_range': '???', 'skill_dim': 4, 'obs_dim_weights': [1, 1], 'skill_type': 'discrete', 'device': '${device}', 'critic_cfg': '${double_q_critic}', 'actor_cfg': '${diag_gaussian_actor}', 'discriminator_cfg': '${discriminator}', 'discount': 0.99, 'init_temperature': 0.1, 'alpha_lr': 0.0001, 'alpha_betas': [0.9, 0.999], 'actor_lr': 0.0001, 'actor_betas': [0.9, 0.999], 'actor_update_frequency': 1, 'critic_lr': 0.0001, 'critic_betas': [0.9, 0.999], 'critic_tau': 0.005, 'critic_target_update_frequency': 2, 'discriminator_lr': 0.0001, 'discriminator_betas': [0.9, 0.999], 'discriminator_update_frequency': 1, 'batch_size': 1024, 'learnable_temperature': True, 'log_frequency': 10000, 'log_save_tb': True, 'name_env': 'AntEnv', 'max_replay_buffer_size': 1000000.0, 'plotter': 'None', 'render_eval_paths': False, 'use_automatic_entropy_tuning': True}}
AntEnv
Agent received is : <agent.diayn_gher.DIAYNGHERAgent object at 0x14e39e20f908>
Agent received is : <agent.diayn_gher.DIAYNGHERAgent object at 0x14e39e20f908>
Type of latent dim: <class 'int'>
1
Type of max replay : <class 'int'>
1000000
Current latent: [-0.52]
Keys are : dict_keys(['observations', 'latents', 'actions', 'next_observations', 'terminals', 'env_infos', 'full_observations', 'rewards', 'qpos', 'next_qpos', 'skills', 'done_no_max', 'rgb_array'])
The type of path is : <class 'dict'>
Keys are : dict_keys(['observations', 'latents', 'actions', 'next_observations', 'terminals', 'env_infos', 'full_observations', 'rewards', 'qpos', 'next_qpos', 'skills', 'done_no_max', 'rgb_array'])
The type of path is : <class 'dict'>
Keys are : dict_keys(['observations', 'latents', 'actions', 'next_observations', 'terminals', 'env_infos', 'full_observations', 'rewards', 'qpos', 'next_qpos', 'skills', 'done_no_max', 'rgb_array'])
The type of path is : <class 'dict'>
Keys are : dict_keys(['observations', 'latents', 'actions', 'next_observations', 'terminals', 'env_infos', 'full_observations', 'rewards', 'qpos', 'next_qpos', 'skills', 'done_no_max', 'rgb_array'])
The type of path is : <class 'dict'>
Keys are : dict_keys(['observations', 'latents', 'actions', 'next_observations', 'terminals', 'env_infos', 'full_observations', 'rewards', 'qpos', 'next_qpos', 'skills', 'done_no_max', 'rgb_array'])
The type of path is : <class 'dict'>
Keys are : dict_keys(['observations', 'latents', 'actions', 'next_observations', 'terminals', 'env_infos', 'full_observations', 'rewards', 'qpos', 'next_qpos', 'skills', 'done_no_max', 'rgb_array'])
The type of path is : <class 'dict'>
Current latent: [1.38]
Keys are : dict_keys(['observations', 'latents', 'actions', 'next_observations', 'terminals', 'env_infos', 'full_observations', 'rewards', 'qpos', 'next_qpos', 'skills', 'done_no_max', 'rgb_array'])
The type of path is : <class 'dict'>
Keys are : dict_keys(['observations', 'latents', 'actions', 'next_observations', 'terminals', 'env_infos', 'full_observations', 'rewards', 'qpos', 'next_qpos', 'skills', 'done_no_max', 'rgb_array'])
The type of path is : <class 'dict'>
Keys are : dict_keys(['observations', 'latents', 'actions', 'next_observations', 'terminals', 'env_infos', 'full_observations', 'rewards', 'qpos', 'next_qpos', 'skills', 'done_no_max', 'rgb_array'])
The type of path is : <class 'dict'>
Keys are : dict_keys(['observations', 'latents', 'actions', 'next_observations', 'terminals', 'env_infos', 'full_observations', 'rewards', 'qpos', 'next_qpos', 'skills', 'done_no_max', 'rgb_array'])
The type of path is : <class 'dict'>
Keys are : dict_keys(['observations', 'latents', 'actions', 'next_observations', 'terminals', 'env_infos', 'full_observations', 'rewards', 'qpos', 'next_qpos', 'skills', 'done_no_max', 'rgb_array'])
The type of path is : <class 'dict'>
Keys are : dict_keys(['observations', 'latents', 'actions', 'next_observations', 'terminals', 'env_infos', 'full_observations', 'rewards', 'qpos', 'next_qpos', 'skills', 'done_no_max', 'rgb_array'])
The type of path is : <class 'dict'>
Keys are : dict_keys(['observations', 'latents', 'actions', 'next_observations', 'terminals', 'env_infos', 'full_observations', 'rewards', 'qpos', 'next_qpos', 'skills', 'done_no_max', 'rgb_array'])
The type of path is : <class 'dict'>
Keys are : dict_keys(['observations', 'latents', 'actions', 'next_observations', 'terminals', 'env_infos', 'full_observations', 'rewards', 'qpos', 'next_qpos', 'skills', 'done_no_max', 'rgb_array'])
The type of path is : <class 'dict'>
Keys are : dict_keys(['observations', 'latents', 'actions', 'next_observations', 'terminals', 'env_infos', 'full_observations', 'rewards', 'qpos', 'next_qpos', 'skills', 'done_no_max', 'rgb_array'])
The type of path is : <class 'dict'>
Keys are : dict_keys(['observations', 'latents', 'actions', 'next_observations', 'terminals', 'env_infos', 'full_observations', 'rewards', 'qpos', 'next_qpos', 'skills', 'done_no_max', 'rgb_array'])
The type of path is : <class 'dict'>
Traceback (most recent call last):
  File "launch_diayn.py", line 654, in <module>
    main()
  File "/ext3/pytorch_sac/lib/python3.6/site-packages/hydra/main.py", line 24, in decorated_main
    strict=strict,
  File "/ext3/pytorch_sac/lib/python3.6/site-packages/hydra/_internal/utils.py", line 174, in run_hydra
    overrides=args.overrides,
  File "/ext3/pytorch_sac/lib/python3.6/site-packages/hydra/_internal/hydra.py", line 86, in run
    job_subdir_key=None,
  File "/ext3/pytorch_sac/lib/python3.6/site-packages/hydra/plugins/common/utils.py", line 109, in run_job
    ret.return_value = task_function(task_cfg)
  File "launch_diayn.py", line 651, in main
    workspace.experiment()
  File "launch_diayn.py", line 432, in experiment
    algorithm.train()
  File "/home/yb1025/Research/GRAIL/relabeler-irl/accelerate-skillDiscovery/generalized-hindsight/rlkit/core/rl_algorithm.py", line 48, in train
    self._train()
  File "/home/yb1025/Research/GRAIL/relabeler-irl/accelerate-skillDiscovery/generalized-hindsight/rlkit/core/batch_rl_algorithm.py", line 123, in _train
    self.trainer.train(train_data)
  File "/home/yb1025/Research/GRAIL/relabeler-irl/accelerate-skillDiscovery/generalized-hindsight/agent/diayn_gher.py", line 216, in train
    self.update(batch, self.logger, self._num_train_steps)
  File "/home/yb1025/Research/GRAIL/relabeler-irl/accelerate-skillDiscovery/generalized-hindsight/agent/diayn_gher.py", line 412, in update
    self.update_critic(obs, action, diversity_reward, next_obs, skill, not_dones_no_max,
NameError: name 'action' is not defined
